<?xml version="1.0" standalone="no"?>
<!DOCTYPE svg PUBLIC "-//W3C//DTD SVG 20010904//EN"
 "http://www.w3.org/TR/2001/REC-SVG-20010904/DTD/svg10.dtd">
<svg version="1.0" xmlns="http://www.w3.org/2000/svg"
 width="56.000000pt" height="56.000000pt" viewBox="0 0 56.000000 56.000000"
 preserveAspectRatio="xMidYMid meet">
<metadata>
Created by potrace 1.15, written by Peter Selinger 2001-2017
</metadata>
<g transform="translate(0.000000,56.000000) scale(0.100000,-0.100000)"
fill="#000000" stroke="none">
<path d="M164 541 c-59 -27 -109 -75 -138 -133 -21 -42 -26 -66 -26 -127 1
-120 51 -205 152 -255 74 -37 182 -37 256 0 101 50 151 135 152 255 0 61 -5
85 -26 127 -29 58 -79 106 -138 133 -56 25 -176 25 -232 0z m215 -17 c116 -48
185 -175 160 -293 -30 -143 -172 -239 -308 -210 -143 30 -239 172 -210 308 35
165 206 257 358 195z"/>
<path d="M210 355 c-58 -59 -72 -77 -62 -87 10 -10 25 0 72 47 l60 59 0 -137
c0 -85 4 -137 10 -137 6 0 10 52 10 137 l0 137 60 -59 c47 -47 62 -57 72 -47
10 10 -4 28 -62 87 -41 41 -77 75 -80 75 -3 0 -39 -34 -80 -75z"/>
</g>
</svg>
