<?xml version="1.0" encoding="utf-8"?>
<!-- Generator: Adobe Illustrator 22.0.1, SVG Export Plug-In . SVG Version: 6.00 Build 0)  -->
<svg version="1.1" id="Capa_1" xmlns="http://www.w3.org/2000/svg" xmlns:xlink="http://www.w3.org/1999/xlink" x="0px" y="0px"
	 viewBox="0 0 489.5 489.5" style="enable-background:new 0 0 489.5 489.5;" xml:space="preserve">
<g>
	<g>
		<path d="M314,376.7c-32.2-97.7,0-82.7,0-82.7c7.4,1.8,14.3,3.2,20.8,4.3l0,0c0,0,93.1,20.9,127.4-10.5
			c27.5-25.1,6.2-58.3,6.2-58.3s38.7-34.5-0.7-75.6c0,0,25.2-41.6-19.1-74.9c0,0,20.6-57.3-61.6-74.8c-24.2-5.2-54.6-5-83.3-2.7
			C232,0,160.5,9.3,160.5,9.3l-46.2,200.9c14.1,8.5,20.7,18.2,23.8,24.5c0.7,2,1.5,4.2,2.4,6.5l0,0l0,0c3.9,9.4,10.1,20.9,20,31.3
			C206.7,308,255,441.2,255,441.2s-7.6,48.3,15,48.3S346.3,474.4,314,376.7z"/>
		<path d="M113.2,6.6H4.1l0.1,200.8H71c9.7,0,19.3-7.8,21.3-17.3l35-166.3C129.3,14.3,123,6.5,113.2,6.6z"/>
	</g>
</g>
</svg>
